<?xml version="1.0" encoding="UTF-8"?>
<svg version="1.1" xmlns="http://www.w3.org/2000/svg" width="1536" height="1024">
<path d="M0 0 C506.88 0 1013.76 0 1536 0 C1536 337.92 1536 675.84 1536 1024 C1029.12 1024 522.24 1024 0 1024 C0 686.08 0 348.16 0 0 Z " fill="#FCFCFC" transform="translate(0,0)"/>
<path d="M0 0 C17.4550962 -1.76651009 17.4550962 -1.76651009 22.46484375 1.7109375 C23.93020475 4.07490409 25.07081837 6.44002501 26.11962891 9.01367188 C27.95978887 13.16551366 30.40232717 17.01924012 32.6875 20.9375 C33.71873901 22.75447617 34.74866644 24.57219731 35.77734375 26.390625 C39.50614436 32.92948641 43.40172448 39.36610728 47.3425293 45.77905273 C47.82246338 46.56739502 48.30239746 47.3557373 48.796875 48.16796875 C49.22323242 48.86172607 49.64958984 49.5554834 50.08886719 50.27026367 C51 52 51 52 51 54 C51.66 54 52.32 54 53 54 C53.24621094 53.15566406 53.49242187 52.31132813 53.74609375 51.44140625 C55.12657959 47.65259621 56.977161 44.36457205 59.0625 40.9375 C59.95006266 39.4562345 60.83670451 37.97441706 61.72265625 36.4921875 C62.22812988 35.64881836 62.73360352 34.80544922 63.25439453 33.93652344 C65.31382203 30.47207673 67.34402559 26.99125751 69.37109375 23.5078125 C70.14115697 22.18625734 70.91125808 20.86472425 71.68139648 19.54321289 C72.83997743 17.55496385 73.99779773 15.56629367 75.15310669 13.57614136 C76.24503402 11.69620642 77.34085355 9.81859115 78.4375 7.94140625 C79.07558594 6.84513916 79.71367188 5.74887207 80.37109375 4.61938477 C82 2 82 2 84 0 C85.86352539 -0.24291992 85.86352539 -0.24291992 88.09765625 -0.23046875 C88.89880859 -0.22853516 89.69996094 -0.22660156 90.52539062 -0.22460938 C91.36263672 -0.21236328 92.19988281 -0.20011719 93.0625 -0.1875 C94.32416992 -0.1865332 94.32416992 -0.1865332 95.61132812 -0.18554688 C101.85976816 -0.14023184 101.85976816 -0.14023184 103 1 C103.17762619 2.84786542 103.28840853 4.70218814 103.37304688 6.55664062 C103.42983109 7.75247269 103.4866153 8.94830475 103.54512024 10.18037415 C103.60241806 11.49241318 103.65971588 12.80445221 103.71875 14.15625 C103.78159904 15.52334719 103.84481246 16.89042767 103.90837097 18.25749207 C104.07704469 21.91599277 104.23937255 25.57474864 104.40005112 29.23360825 C104.4996522 31.49211349 104.60092799 33.75053729 104.70278931 36.00894165 C105.44908382 52.56492067 106.1926896 69.12174682 106.6875 85.6875 C106.72359375 86.89019531 106.7596875 88.09289062 106.796875 89.33203125 C107.00739911 97.22210866 107.0334211 105.10742078 107 113 C104.18743719 113.02684312 101.37512759 113.04676188 98.5625 113.0625 C97.76005859 113.07087891 96.95761719 113.07925781 96.13085938 113.08789062 C94.08704779 113.0965143 92.04316098 113.0522815 90 113 C88.28644932 111.28644932 88.78028536 109.01257208 88.70288086 106.66772461 C88.6429319 104.952136 88.6429319 104.952136 88.58177185 103.20188904 C88.54318558 101.94803909 88.5045993 100.69418915 88.46484375 99.40234375 C88.40037804 97.45890831 88.40037804 97.45890831 88.33460999 95.47621155 C88.24333902 92.71120007 88.15549048 89.94610641 88.07006836 87.1809082 C87.96273366 83.71277384 87.84786468 80.24494358 87.73050499 76.77713585 C87.17221419 60.18246782 86.85436431 43.60530713 87 27 C86.34 27 85.68 27 85 27 C84.91105469 27.52078125 84.82210937 28.0415625 84.73046875 28.578125 C83.72779461 31.90249916 82.03582767 34.75832741 80.3125 37.75 C79.92602295 38.42812744 79.5395459 39.10625488 79.14135742 39.80493164 C77.76766748 42.20723384 76.38438493 44.60384543 75 47 C74.43925781 47.97372559 73.87851562 48.94745117 73.30078125 49.95068359 C71.47607707 53.11571414 69.64545858 56.27724334 67.8125 59.4375 C67.23089111 60.44329102 66.64928223 61.44908203 66.05004883 62.48535156 C64.92339988 64.41876249 63.78548314 66.34566066 62.63525391 68.26513672 C61.55730552 70.06794021 60.50660038 71.88735558 59.48583984 73.72314453 C55.96578901 79.6917236 55.96578901 79.6917236 51.5 81.1171875 C46.14091026 79.40658519 44.65796188 75.88350606 42 71.125 C41.45819092 70.20348145 40.91638184 69.28196289 40.3581543 68.33251953 C38.54622101 65.23596641 36.77344488 62.11873679 35 59 C33.63621236 56.63789014 32.26530751 54.27993439 30.89453125 51.921875 C27.70411459 46.42666692 24.54198383 40.91581866 21.39770508 35.39404297 C20.32631127 33.55891848 19.17873029 31.76809544 18 30 C18 29.01 18 28.02 18 27 C17.34 27 16.68 27 16 27 C16.01087646 28.20744873 16.02175293 29.41489746 16.03295898 30.65893555 C16.12643363 46.29120605 15.70790099 61.89954035 15.20043945 77.52124023 C15.08264589 81.15239551 14.9726149 84.78374364 14.86443424 88.41519642 C14.77944067 91.23501046 14.69001177 94.05467035 14.59924126 96.87430382 C14.53610356 98.86466815 14.47713406 100.85516328 14.41822815 102.84565735 C14.35827919 104.63099129 14.35827919 104.63099129 14.29711914 106.45239258 C14.26380997 107.50300369 14.23050079 108.55361481 14.19618225 109.63606262 C14 112 14 112 13 113 C10.13732433 113.07325168 7.299281 113.09238205 4.4375 113.0625 C3.63119141 113.05798828 2.82488281 113.05347656 1.99414062 113.04882812 C-0.00393756 113.03700518 -2.00197783 113.01906914 -4 113 C-4.22325629 87.97048909 -3.33746977 63.03036148 -1.73535156 38.05932617 C-0.92695412 25.38109215 -0.40931489 12.69708106 0 0 Z " fill="#1546AB" transform="translate(620,463)"/>
<path d="M0 0 C11.55 0 23.1 0 35 0 C35.20360988 18.5507747 35.36920749 37.10063684 35.46630955 55.65224743 C35.51260554 64.26719007 35.57565728 72.88138628 35.67895508 81.49584961 C35.7690067 89.00927313 35.82680501 96.52215579 35.84679645 104.03610402 C35.85847278 108.01051648 35.88566799 111.9833825 35.95157051 115.95729637 C36.01326022 119.70802973 36.03138798 123.45659974 36.01796913 127.20779228 C36.02157575 129.22018118 36.06969887 131.23234128 36.11978149 133.24411011 C35.94488956 150.62461033 21.74928026 162.50770269 10.078125 174.015625 C2.76377953 181 2.76377953 181 0 181 C0 121.27 0 61.54 0 0 Z " fill="#2FA6A2" transform="translate(521,413)"/>
<path d="M0 0 C5.0992147 2.83824214 8.69470387 6.66027216 10.7578125 12.15234375 C11.70999242 18.07600153 11.25408169 23.14102458 7.7578125 28.15234375 C2.81124204 32.98899042 -1.53572269 35.21381149 -8.4296875 35.33984375 C-12.2421875 35.15234375 -12.2421875 35.15234375 -15.2421875 34.15234375 C-15.47164062 34.82910156 -15.70109375 35.50585938 -15.9375 36.203125 C-17.5839693 39.92493434 -19.77173925 43.0278039 -22.1171875 46.33984375 C-23.11702642 47.77264196 -24.11568192 49.20626656 -25.11328125 50.640625 C-25.63003418 51.3826416 -26.14678711 52.1246582 -26.67919922 52.88916016 C-29.22315153 56.57276495 -31.70293125 60.29835453 -34.1796875 64.02734375 C-34.67194824 64.76782959 -35.16420898 65.50831543 -35.67138672 66.27124023 C-36.67822674 67.78640212 -37.68473466 69.30178474 -38.69091797 70.81738281 C-41.36949276 74.84915639 -44.05632958 78.87542003 -46.7421875 82.90234375 C-47.71097408 84.35544436 -48.67972609 85.80856802 -49.6484375 87.26171875 C-51.29427083 89.73046875 -52.94010417 92.19921875 -54.5859375 94.66796875 C-55.1325 95.4878125 -55.6790625 96.30765625 -56.2421875 97.15234375 C-55.8090625 98.01859375 -55.8090625 98.01859375 -55.3671875 98.90234375 C-54.8103125 100.01609375 -54.8103125 100.01609375 -54.2421875 101.15234375 C-53.72785156 102.05146484 -53.72785156 102.05146484 -53.203125 102.96875 C-51.32776327 107.23024272 -51.54406054 111.61451852 -52.2421875 116.15234375 C-54.23897769 120.75873215 -56.90829283 124.07872121 -60.8046875 127.21484375 C-66.80899002 128.8523808 -73.72858915 129.69101685 -79.5703125 127.1328125 C-82.43723129 125.13921981 -84.30849521 123.05288219 -86.2421875 120.15234375 C-86.2421875 119.16234375 -86.2421875 118.17234375 -86.2421875 117.15234375 C-87.05999191 117.2429734 -87.05999191 117.2429734 -87.89431763 117.33543396 C-93.6380125 117.97141208 -99.38211924 118.60356975 -105.12646484 119.23364258 C-107.26198649 119.46836656 -109.39740608 119.70402114 -111.53271484 119.94067383 C-123.0920628 121.22113556 -134.62838005 122.48020708 -146.2421875 123.15234375 C-146.18998047 124.54066406 -146.18998047 124.54066406 -146.13671875 125.95703125 C-146.27514391 130.15080077 -147.63591648 131.91211491 -150.2421875 135.15234375 C-155.0642276 139.49217984 -158.44293488 141.55890724 -165.0703125 141.421875 C-168.7437409 140.96599989 -171.8502865 139.60601561 -175.2421875 138.15234375 C-176.97165383 139.73535077 -178.70080878 141.31869512 -180.4296875 142.90234375 C-180.96561523 143.3931543 -181.50154297 143.88396484 -182.05371094 144.38964844 C-184.92631288 147.02245056 -187.79403636 149.66027437 -190.65234375 152.30859375 C-195.79871856 157.07677891 -200.94738795 161.82731909 -206.25390625 166.41796875 C-210.29615228 169.9440144 -214.26254505 173.55598653 -218.2421875 177.15234375 C-218.08621094 177.69503906 -217.93023437 178.23773437 -217.76953125 178.796875 C-216.24593678 185.60226361 -216.08429674 192.18987414 -219.8671875 198.21484375 C-223.48814161 202.83093306 -226.3197672 204.75122724 -232.23046875 205.5625 C-238.16833145 205.93918103 -242.28268073 205.86121972 -246.9296875 201.90234375 C-251.3433193 197.47926092 -252.54435551 194.0263285 -252.6171875 187.77734375 C-252.52664713 182.38717358 -252.07516345 179.19250759 -248.2421875 175.15234375 C-244.29109187 171.58672087 -241.37959553 170.00849452 -236.0546875 170.02734375 C-235.33925781 170.02476562 -234.62382812 170.0221875 -233.88671875 170.01953125 C-231.2421875 170.15234375 -231.2421875 170.15234375 -229.35766602 170.54858398 C-225.34962005 171.33537846 -223.86485119 171.55068357 -220.29296875 169.265625 C-219.38933594 168.34136719 -218.48570312 167.41710937 -217.5546875 166.46484375 C-216.51879324 165.43823259 -215.4823145 164.41221094 -214.4453125 163.38671875 C-213.91873047 162.85111328 -213.39214844 162.31550781 -212.84960938 161.76367188 C-210.25014279 159.15788824 -207.523702 156.6945358 -204.8046875 154.21484375 C-203.72187339 153.21699468 -202.63984753 152.2182896 -201.55859375 151.21875 C-200.74672607 150.46875732 -200.74672607 150.46875732 -199.91845703 149.70361328 C-198.17904094 148.09390605 -196.44278994 146.48083731 -194.70703125 144.8671875 C-193.83679321 144.05979126 -193.83679321 144.05979126 -192.94897461 143.23608398 C-191.84561315 142.21226682 -190.74347579 141.18712817 -189.64282227 140.16040039 C-186.61031261 137.34917805 -183.50357025 134.69430383 -180.2421875 132.15234375 C-180.48001953 131.32863281 -180.48001953 131.32863281 -180.72265625 130.48828125 C-181.99264932 124.77808685 -182.16910054 119.07747083 -179.6171875 113.77734375 C-172.10755884 105.47722786 -172.10755884 105.47722786 -167.140625 104.9140625 C-160.93183588 104.73145106 -156.35457784 105.48885667 -151.2421875 109.15234375 C-147.2421875 113.35234375 -147.2421875 113.35234375 -147.2421875 116.15234375 C-146.38802246 116.04164551 -145.53385742 115.93094727 -144.65380859 115.81689453 C-114.58230325 111.93839277 -114.58230325 111.93839277 -99.88232422 110.74853516 C-95.93372827 110.42541843 -92.11096064 110.05847188 -88.2421875 109.15234375 C-87.901875 107.60546875 -87.901875 107.60546875 -87.5546875 106.02734375 C-85.96588099 100.57685476 -82.98011696 97.19510143 -78.1171875 94.27734375 C-74.78843207 92.92999036 -72.48704065 93.42219561 -68.9921875 93.96484375 C-66.17258366 94.13476969 -66.17258366 94.13476969 -63.2421875 93.15234375 C-61.30292682 90.93167069 -59.8357224 88.93409719 -58.2890625 86.4609375 C-57.59435852 85.40123749 -57.59435852 85.40123749 -56.88562012 84.32012939 C-55.86894088 82.76822177 -54.85958502 81.21149842 -53.85656738 79.65072632 C-51.60394543 76.16461286 -49.2892191 72.72128937 -46.97796631 69.27388 C-43.88618035 64.65881572 -40.81576543 60.02954558 -37.7421875 55.40234375 C-35.2539457 51.65665798 -32.76414879 47.91201274 -30.2734375 44.16796875 C-29.42972595 42.89617767 -29.42972595 42.89617767 -28.56896973 41.59869385 C-28.04411987 40.80976746 -27.51927002 40.02084106 -26.97851562 39.20800781 C-26.52093872 38.51902405 -26.06336182 37.83004028 -25.59191895 37.12017822 C-24.62964208 35.7172313 -23.6133566 34.35070209 -22.56335449 33.012146 C-21.04066727 31.2848057 -21.04066727 31.2848057 -21.3671875 29.33984375 C-22.10487377 27.49562807 -22.94404297 25.69248438 -23.8046875 23.90234375 C-25.47215512 19.98379484 -26.18701311 16.34984771 -25.2421875 12.15234375 C-22.8100185 6.92576782 -19.52356699 2.27368033 -14.22265625 -0.25390625 C-9.38670356 -1.70373822 -4.74726365 -1.79469723 0 0 Z " fill="#2A95A3" transform="translate(550.2421875,345.84765625)"/>
<path d="M0 0 C11.55 0 23.1 0 35 0 C35 37.95 35 75.9 35 115 C9 128 9 128 0 128 C0 85.76 0 43.52 0 0 Z " fill="#2478A1" transform="translate(466,492)"/>
<path d="M0 0 C1.09920273 0.00222061 2.19840546 0.00444122 3.33091736 0.00672913 C4.57212845 0.00680466 5.81333954 0.00688019 7.09216309 0.00695801 C8.45682311 0.01206541 9.82148274 0.01728142 11.18614197 0.02259827 C12.57476755 0.02446251 13.96339379 0.02588638 15.35202026 0.02688599 C19.01319686 0.03071065 22.67433402 0.04054048 26.335495 0.05158997 C30.06890835 0.06180519 33.80232805 0.06638384 37.53575134 0.07142639 C44.86584748 0.08216281 52.19591108 0.0992386 59.52598572 0.12025452 C59.55283984 2.43269244 59.57231413 4.74521722 59.58848572 7.05775452 C59.60008728 8.34552795 59.61168884 9.63330139 59.62364197 10.96009827 C59.52598572 14.12025452 59.52598572 14.12025452 58.52598572 15.12025452 C57.14438457 15.21303782 55.75810534 15.23772494 54.37339783 15.23377991 C53.49256027 15.23370438 52.61172272 15.23362885 51.70419312 15.23355103 C50.74690811 15.22838974 49.78962311 15.22322845 48.80332947 15.21791077 C47.82811844 15.21649582 46.85290741 15.21508087 45.84814453 15.21362305 C42.71989429 15.20800584 39.59171449 15.19545044 36.46348572 15.18275452 C34.34825237 15.17774173 32.23301791 15.17317844 30.11778259 15.16908264 C24.92046771 15.15887982 19.72330596 15.13930783 14.52598572 15.12025452 C14.52598572 25.68025452 14.52598572 36.24025452 14.52598572 47.12025452 C17.47407166 47.10865295 20.42215759 47.09705139 23.45957947 47.08509827 C26.30243319 47.07730835 29.14528574 47.07123122 31.98814392 47.06532288 C33.96992013 47.06028184 35.95169261 47.05344914 37.93345642 47.04481506 C40.7755068 47.03273937 43.61750819 47.02702406 46.45957947 47.02259827 C47.35124313 47.01743698 48.2429068 47.0122757 49.16159058 47.00695801 C51.28339173 47.00676275 53.40509352 47.05815422 55.52598572 47.12025452 C56.52598572 48.12025452 56.52598572 48.12025452 56.65879822 51.02650452 C56.65622009 52.21244202 56.65364197 53.39837952 56.65098572 54.62025452 C56.65485291 56.39916077 56.65485291 56.39916077 56.65879822 58.21400452 C56.52598572 61.12025452 56.52598572 61.12025452 55.52598572 62.12025452 C52.49620768 62.20896724 49.4893155 62.23544802 46.45957947 62.21791077 C45.55095657 62.21649582 44.64233368 62.21508087 43.70617676 62.21362305 C40.79191351 62.20800645 37.87772591 62.19545117 34.96348572 62.18275452 C32.9927837 62.17774165 31.02208048 62.17317838 29.05137634 62.16908264 C24.20952658 62.15888068 19.36784125 62.1393086 14.52598572 62.12025452 C14.52598572 73.01025452 14.52598572 83.90025452 14.52598572 95.12025452 C17.90719666 95.10865295 21.28840759 95.09705139 24.77207947 95.08509827 C28.03192552 95.07730877 31.29177055 95.0712314 34.55162048 95.06532288 C36.82441163 95.06028126 39.09719952 95.05344814 41.36997986 95.04481506 C44.62902123 95.03274191 47.88801989 95.02702465 51.14707947 95.02259827 C52.16998581 95.01743698 53.19289215 95.0122757 54.24679565 95.00695801 C55.18769547 95.00688248 56.12859528 95.00680695 57.0980072 95.00672913 C57.93073654 95.00450851 58.76346588 95.0022879 59.62142944 95 C61.52598572 95.12025452 61.52598572 95.12025452 62.52598572 96.12025452 C62.62507874 98.45185507 62.65569076 100.78655393 62.65098572 103.12025452 C62.65485291 105.03837952 62.65485291 105.03837952 62.65879822 106.99525452 C62.52598572 110.12025452 62.52598572 110.12025452 61.52598572 111.12025452 C59.53711078 111.21955984 57.54468155 111.24824913 55.55332947 111.24964905 C54.27530457 111.25280121 52.99727966 111.25595337 51.68052673 111.25920105 C50.27484605 111.25741127 48.86916567 111.25536032 47.46348572 111.25306702 C46.03241459 111.2537401 44.60134357 111.25471016 43.17027283 111.25596619 C40.16741347 111.25744296 37.16458381 111.25528928 34.16172791 111.25062561 C30.30446001 111.24492832 26.44726168 111.24820744 22.58999634 111.25419807 C19.63384981 111.25780426 16.67771989 111.25666484 13.72157288 111.25407028 C12.29894503 111.25340117 10.87631569 111.25422889 9.45368958 111.25654984 C7.46867398 111.25907725 5.48365313 111.25454494 3.49864197 111.24964905 C1.8010675 111.24845566 1.8010675 111.24845566 0.06919861 111.24723816 C-2.47401428 111.12025452 -2.47401428 111.12025452 -3.47401428 110.12025452 C-3.57167824 108.70579459 -3.60033105 107.28649505 -3.60099792 105.8686676 C-3.60381775 104.95159531 -3.60663757 104.03452301 -3.60954285 103.08966064 C-3.60751862 102.07559647 -3.60549438 101.06153229 -3.60340881 100.01673889 C-3.60516113 98.95505997 -3.60691345 97.89338104 -3.60871887 96.79953003 C-3.61313977 93.27100516 -3.61019856 89.74252994 -3.60682678 86.21400452 C-3.60749975 83.77402232 -3.60846972 81.33404019 -3.60972595 78.89405823 C-3.61120325 73.77267317 -3.60904735 68.65130552 -3.60438538 63.52992249 C-3.59868808 56.94862737 -3.60196691 50.36737303 -3.60795784 43.78607941 C-3.6115626 38.74539378 -3.61042526 33.7047179 -3.60783005 28.66403198 C-3.60716054 26.23661291 -3.60799002 23.80919296 -3.6103096 21.3817749 C-3.61283473 17.99574929 -3.6089975 14.60979073 -3.60340881 11.22377014 C-3.60543304 10.20970596 -3.60745728 9.19564178 -3.60954285 8.15084839 C-3.60672302 7.23377609 -3.6039032 6.3167038 -3.60099792 5.37184143 C-3.6006209 4.57025856 -3.60024387 3.76867569 -3.59985542 2.94280243 C-3.4014393 0.06915636 -2.88334972 0.1401511 0 0 Z " fill="#2CA9A3" transform="translate(1100.4740142822266,464.87974548339844)"/>
<path d="M0 0 C11.55 0 23.1 0 35 0 C35 35.97 35 71.94 35 109 C20 112 20 112 0 113 C0 75.71 0 38.42 0 0 Z " fill="#2168A3" transform="translate(411,516)"/>
<path d="M0 0 C7.95291219 8.07110834 10.05961781 16.13398622 10 27.1875 C9.85729113 36.70520887 9.85729113 36.70520887 8.5625 38 C6.96639018 38.09333705 5.36616572 38.11745372 3.76733398 38.11352539 C2.74635117 38.11344986 1.72536835 38.11337433 0.67344666 38.11329651 C-0.4369548 38.10813522 -1.54735626 38.10297394 -2.69140625 38.09765625 C-3.82198959 38.0962413 -4.95257294 38.09482635 -6.11741638 38.09336853 C-9.74497065 38.08775019 -13.37246424 38.07519458 -17 38.0625 C-19.45247307 38.05748736 -21.9049471 38.05292405 -24.35742188 38.04882812 C-30.38413545 38.0377748 -36.41081339 38.02101884 -42.4375 38 C-41.9925313 39.43183559 -41.53903282 40.86102193 -41.08203125 42.2890625 C-40.70461792 43.48329834 -40.70461792 43.48329834 -40.31958008 44.70166016 C-38.58342804 49.22536213 -35.91853317 52.09456487 -31.75390625 54.640625 C-27.96622028 56.19317473 -24.71334869 56.45690453 -20.6875 56.375 C-19.98592773 56.36774902 -19.28435547 56.36049805 -18.56152344 56.35302734 C-12.05771748 56.18108765 -6.14522617 54.96537365 -0.359375 51.8984375 C1.5625 51 1.5625 51 4.5625 51 C6.35525866 54.11910856 6.90540718 56.67682428 7.1875 60.25 C7.29964844 61.58804688 7.29964844 61.58804688 7.4140625 62.953125 C7.46304688 63.62859375 7.51203125 64.3040625 7.5625 65 C-5.02842708 71.86777841 -21.57202462 73.88319963 -35.63183594 70.46679688 C-39.25912662 69.16059141 -42.366946 67.30423674 -45.4375 65 C-46.29730469 64.35675781 -47.15710938 63.71351563 -48.04296875 63.05078125 C-55.37165406 56.77417474 -58.86943853 48.19852418 -59.61767578 38.71679688 C-60.38793919 24.50419467 -59.15782179 14.43331721 -49.7109375 3.265625 C-36.83922852 -9.5618513 -14.57189042 -11.35219653 0 0 Z " fill="#1446AB" transform="translate(1015.4375,506)"/>
<path d="M0 0 C5.28392821 5.59474752 8.25532005 11.17245857 8.23852539 18.91479492 C8.23841209 20.65626045 8.23841209 20.65626045 8.23829651 22.4329071 C8.23313522 23.68610245 8.22797394 24.93929779 8.22265625 26.23046875 C8.2212413 27.51359451 8.21982635 28.79672028 8.21836853 30.11872864 C8.21455405 33.52670241 8.20473291 36.93463343 8.19366455 40.34259033 C8.18342743 43.82148663 8.17886598 47.30038985 8.17382812 50.77929688 C8.16310967 57.60288389 8.14552152 64.42643549 8.125 71.25 C3.835 71.25 -0.455 71.25 -4.875 71.25 C-6.22939668 68.54120665 -5.94001451 66.24066732 -5.875 63.25 C-6.44347656 63.64832031 -7.01195312 64.04664063 -7.59765625 64.45703125 C-8.36980469 64.98683594 -9.14195312 65.51664063 -9.9375 66.0625 C-10.69160156 66.58457031 -11.44570313 67.10664062 -12.22265625 67.64453125 C-18.79217473 71.62107337 -23.72029651 72.75383379 -31.3125 72.6875 C-32.12009766 72.70748047 -32.92769531 72.72746094 -33.75976562 72.74804688 C-40.55773956 72.74256906 -45.68580659 70.94665388 -50.8984375 66.5390625 C-55.94915125 60.32055367 -57.36844621 55.00999139 -57.18359375 46.99609375 C-56.533239 41.2087597 -53.9937032 37.03814177 -49.875 33 C-42.88944641 27.45086977 -32.59433777 25.09834762 -23.79296875 25.15234375 C-22.86162109 25.15556641 -21.93027344 25.15878906 -20.97070312 25.16210938 C-20.01099609 25.17048828 -19.05128906 25.17886719 -18.0625 25.1875 C-17.08345703 25.19201172 -16.10441406 25.19652344 -15.09570312 25.20117188 C-12.68873889 25.21291316 -10.28190143 25.22933581 -7.875 25.25 C-8.15939243 23.63518483 -8.45439501 22.02223568 -8.75390625 20.41015625 C-8.91705322 19.51176025 -9.0802002 18.61336426 -9.24829102 17.68774414 C-10.05228037 14.56042286 -11.2371021 13.0885349 -13.875 11.25 C-22.93060541 8.23146486 -34.17133412 9.50747446 -42.67578125 13.47265625 C-45.26049054 14.38625687 -46.3870703 14.37650894 -48.875 13.25 C-50.70602282 9.96678668 -51.79995287 7.32567558 -52.0625 3.5625 C-49.73893498 -0.96233715 -44.80106563 -2.07327424 -40.2734375 -3.6640625 C-26.64531684 -7.68116694 -12.3158516 -7.49660532 0 0 Z " fill="#1546AB" transform="translate(797.875,504.75)"/>
<path d="M0 0 C5.28 0 10.56 0 16 0 C17.84913943 1.84913943 17.17339215 4.8788482 17.20532227 7.35571289 C17.21522186 8.01910172 17.22512146 8.68249054 17.23532104 9.36598206 C17.26701737 11.56816995 17.29172534 13.77037945 17.31640625 15.97265625 C17.33696878 17.49580968 17.35796505 19.01895731 17.37937927 20.542099 C17.43467247 24.55831214 17.48404963 28.57457738 17.53222656 32.59088135 C17.58238882 36.68628599 17.63810236 40.78161461 17.69335938 44.87695312 C17.80102954 52.91790455 17.90245467 60.95891941 18 69 C19.12757789 67.87644003 20.25458463 66.75230684 21.38134766 65.62792969 C22.00901031 65.00198914 22.63667297 64.37604858 23.28335571 63.73114014 C28.91792477 58.04899112 33.87722337 51.74412725 38.88671875 45.515625 C39.93279297 44.27039063 39.93279297 44.27039063 41 43 C41.54785156 42.236875 42.09570312 41.47375 42.66015625 40.6875 C46.41239743 37.98137614 50.2575664 38.57746932 54.75 38.75 C55.63816406 38.76804687 56.52632812 38.78609375 57.44140625 38.8046875 C59.62870848 38.85172626 61.81379816 38.91742991 64 39 C63.26017634 42.39427951 62.44508821 43.8758378 59.875 46.25 C56.68792218 49.30104401 53.77368846 52.47971023 50.89453125 55.8203125 C48.01903952 59.1286102 45.06248746 62.36291343 42.11328125 65.60546875 C39.99127508 68.00988609 37.98279012 70.48011097 36 73 C37.6518688 76.91728886 40.30429979 79.8908047 43.0625 83.0625 C44.06192629 84.22723999 45.06061364 85.3926144 46.05859375 86.55859375 C46.55601074 87.13851074 47.05342773 87.71842773 47.56591797 88.31591797 C50.35869087 91.59554811 53.06987791 94.94138672 55.78515625 98.28515625 C57.36366575 100.22001358 58.95640149 102.14330132 60.55859375 104.05859375 C61.38488281 105.04988281 62.21117187 106.04117188 63.0625 107.0625 C63.81660156 107.96097656 64.57070313 108.85945312 65.34765625 109.78515625 C67 112 67 112 67 114 C49.40080422 116.05234894 49.40080422 116.05234894 44.15283203 112.88525391 C41.08578227 109.95063809 39.02188727 106.39447276 36.98242188 102.70117188 C35.54739204 100.21625939 33.76999476 98.07683479 31.9375 95.875 C31.30585937 95.08996094 30.67421875 94.30492187 30.0234375 93.49609375 C24.25378314 86.03253969 24.25378314 86.03253969 18 79 C17.97494385 80.02472412 17.9498877 81.04944824 17.92407227 82.10522461 C17.83015516 85.89409676 17.72989683 89.68277881 17.62768555 93.47143555 C17.58427703 95.11364303 17.54260642 96.75589739 17.50268555 98.39819336 C17.4451256 100.75388745 17.38139108 103.10934428 17.31640625 105.46484375 C17.29133751 106.57266457 17.29133751 106.57266457 17.26576233 107.7028656 C17.11387171 112.88612829 17.11387171 112.88612829 16 114 C10.72 114 5.44 114 0 114 C0 76.38 0 38.76 0 0 Z " fill="#1444A9" transform="translate(886,462)"/>
<path d="M0 0 C11.22 0 22.44 0 34 0 C34 27.06 34 54.12 34 82 C6 82 6 82 0 81 C0 54.27 0 27.54 0 0 Z " fill="#1141A8" transform="translate(356,547)"/>
<path d="M0 0 C6.67003341 -1.26824579 13.48861147 -2.44449488 20 0 C26.25567764 5.46746752 30.6214707 13.47757325 34 21 C34 21.66 34 22.32 34 23 C34.66 23 35.32 23 36 23 C36.37511719 21.93072266 36.37511719 21.93072266 36.7578125 20.83984375 C38.12705788 17.7095249 39.82354664 15.29132003 41.875 12.5625 C45.24680003 8.03233887 45.24680003 8.03233887 48.4375 3.375 C50 1 50 1 51 0 C52.41570123 -0.08651611 53.835595 -0.10704904 55.25390625 -0.09765625 C56.53491211 -0.09282227 56.53491211 -0.09282227 57.84179688 -0.08789062 C58.73962891 -0.07951172 59.63746094 -0.07113281 60.5625 -0.0625 C61.46419922 -0.05798828 62.36589844 -0.05347656 63.29492188 -0.04882812 C65.53001314 -0.03700225 67.76497437 -0.0205222 70 0 C68.31538517 3.46938348 66.33791808 6.52213549 64.125 9.6875 C63.7429541 10.23986328 63.3609082 10.79222656 62.96728516 11.36132812 C60.60080909 14.76905367 58.17579129 18.12552171 55.703125 21.45703125 C54.87530518 22.58782104 54.87530518 22.58782104 54.03076172 23.74145508 C52.94068611 25.22837479 51.83838396 26.7064202 50.72314453 28.17456055 C50.22411621 28.85945557 49.72508789 29.54435059 49.2109375 30.25 C48.76024902 30.85328125 48.30956055 31.4565625 47.84521484 32.078125 C46.6638249 34.76440507 47.11914909 36.2372946 48 39 C49.11907084 41.02271272 49.11907084 41.02271272 50.58984375 42.8984375 C51.12262939 43.61829834 51.65541504 44.33815918 52.2043457 45.07983398 C52.77628662 45.83723877 53.34822754 46.59464355 53.9375 47.375 C55.11921174 48.9763728 56.2988693 50.5792633 57.4765625 52.18359375 C58.36263184 53.38798096 58.36263184 53.38798096 59.26660156 54.61669922 C61.8548083 58.17530122 64.35332109 61.7888639 66.8125 65.4375 C67.23845459 66.05737793 67.66440918 66.67725586 68.10327148 67.31591797 C71 71.644335 71 71.644335 71 75 C55.26966292 76.34831461 55.26966292 76.34831461 50.6328125 73.59375 C48.76596771 71.17892589 47.4283808 68.70179576 46 66 C44.56509213 63.74349166 43.08948935 61.51637585 41.61303711 59.28686523 C39.36732601 55.88417622 37.18269157 52.44332788 35 49 C32.20898853 52.14072857 30.18945995 55.4010059 28.21484375 59.08203125 C19.9503535 73.85681693 19.9503535 73.85681693 14.48974609 75.97265625 C8.86446554 76.83182792 3.54121049 76.11651256 -2 75 C-1.37246825 71.59629092 -0.08545282 69.39222213 1.9140625 66.5859375 C2.51089844 65.74160156 3.10773438 64.89726563 3.72265625 64.02734375 C4.66431641 62.71443359 4.66431641 62.71443359 5.625 61.375 C6.22957031 60.52292969 6.83414062 59.67085937 7.45703125 58.79296875 C9.93524541 55.30021916 12.41741755 51.81051079 14.91699219 48.33300781 C17.9948916 44.01164352 20.83084553 39.84869823 23 35 C21.37676296 32.62377848 19.75175927 30.24880949 18.125 27.875 C17.63410889 27.15812012 17.14321777 26.44124023 16.63745117 25.70263672 C14.14240159 22.07136642 11.62621025 18.45981668 9.04296875 14.890625 C8.58325684 14.25527832 8.12354492 13.61993164 7.64990234 12.96533203 C6.77028391 11.75493338 5.88659903 10.54747766 4.99853516 9.34326172 C2 5.21767829 2 5.21767829 2 3 C1.34 3 0.68 3 0 3 C0 2.01 0 1.02 0 0 Z " fill="#30AAA4" transform="translate(1176,501)"/>
<path d="M0 0 C5.28 0 10.56 0 16 0 C16 8.58 16 17.16 16 26 C22.6 26 29.2 26 36 26 C36 30.29 36 34.58 36 39 C29.4 39 22.8 39 16 39 C16.07404042 45.03301795 16.15690777 51.06456435 16.26245117 57.09692383 C16.29567083 59.14827816 16.32371197 61.19972325 16.34643555 63.2512207 C16.3800357 66.20302949 16.43235476 69.15400886 16.48828125 72.10546875 C16.49467117 73.02023483 16.5010611 73.93500092 16.50764465 74.87748718 C16.64737155 81.45848726 16.64737155 81.45848726 20 87 C21.89311878 87.665194 21.89311878 87.665194 23.9765625 87.453125 C25.10578125 87.4221875 25.10578125 87.4221875 26.2578125 87.390625 C27.03898437 87.34421875 27.82015625 87.2978125 28.625 87.25 C31.4175384 87.14048869 34.20557879 87.05882992 37 87 C38 88 38 88 38.09765625 90.72265625 C38.08605469 91.82480469 38.07445312 92.92695312 38.0625 94.0625 C38.05347656 95.16722656 38.04445313 96.27195312 38.03515625 97.41015625 C38.02355469 98.26480469 38.01195312 99.11945313 38 100 C33.38882598 102.31944825 29.23002644 102.33331968 24.1875 102.3125 C23.41857422 102.32861328 22.64964844 102.34472656 21.85742188 102.36132812 C16.03352383 102.36624281 9.98806449 101.69769729 5.4699707 97.61865234 C1.7351108 93.29736045 -0.230851 89.73830173 -0.31884766 84.04785156 C-0.33871735 83.06713684 -0.35858704 82.08642212 -0.37905884 81.07598877 C-0.39061005 80.02481873 -0.40216125 78.97364868 -0.4140625 77.890625 C-0.43342865 76.80867859 -0.4527948 75.72673218 -0.4727478 74.61199951 C-0.53250237 71.15807974 -0.57891297 67.70412656 -0.625 64.25 C-0.66318353 61.90753759 -0.70223548 59.56508916 -0.7421875 57.22265625 C-0.83820073 51.48188447 -0.92224744 45.74104697 -1 40 C-4.63 39.67 -8.26 39.34 -12 39 C-12 34.71 -12 30.42 -12 26 C-8.04 26 -4.08 26 0 26 C0 17.42 0 8.84 0 0 Z " fill="#1244AA" transform="translate(1045,475)"/>
<path d="M0 0 C0.20674944 5.78898419 -0.40837921 10.42932723 -2 16 C-2.804375 15.835 -3.60875 15.67 -4.4375 15.5 C-11.05951438 14.57059447 -16.62487751 13.93887373 -22.4296875 17.71875 C-25.59563006 20.30190711 -28.16438475 23.3287695 -30 27 C-30.11822971 28.54142175 -30.17699811 30.08761097 -30.20532227 31.63330078 C-30.22526749 32.59414581 -30.24521271 33.55499084 -30.26576233 34.54495239 C-30.29083107 36.10438065 -30.29083107 36.10438065 -30.31640625 37.6953125 C-30.33718735 38.75789276 -30.35796844 39.82047302 -30.37937927 40.91525269 C-30.44490261 44.31843438 -30.50377273 47.72169489 -30.5625 51.125 C-30.60568257 53.42839366 -30.64929677 55.73177926 -30.69335938 58.03515625 C-30.80058682 63.69002021 -30.90234802 69.34496303 -31 75 C-33.64590014 75.02684679 -36.29153096 75.04676357 -38.9375 75.0625 C-39.69224609 75.07087891 -40.44699219 75.07925781 -41.22460938 75.08789062 C-43.14994313 75.09652441 -45.07535581 75.05224333 -47 75 C-48.90170704 73.09829296 -48.12784206 69.72152287 -48.12939453 67.20117188 C-48.13114685 66.49062149 -48.13289917 65.78007111 -48.13470459 65.04798889 C-48.13912277 62.68821809 -48.13618525 60.32852163 -48.1328125 57.96875 C-48.13348555 56.33589666 -48.13445558 54.70304342 -48.13571167 53.07019043 C-48.1371886 49.64362639 -48.13503426 46.21708837 -48.13037109 42.79052734 C-48.1246738 38.38845499 -48.12795284 33.98644359 -48.13394356 29.58437347 C-48.13754931 26.21131935 -48.13641052 22.83827978 -48.13381577 19.46522522 C-48.13314654 17.84163913 -48.13397478 16.21805173 -48.13629532 14.59446716 C-48.13882209 12.3292183 -48.13498094 10.0640695 -48.12939453 7.79882812 C-48.12859894 6.50722778 -48.12780334 5.21562744 -48.12698364 3.8848877 C-48 1 -48 1 -47 0 C-44.81360547 -0.07258946 -42.62499611 -0.08373783 -40.4375 -0.0625 C-38.64119141 -0.04896484 -38.64119141 -0.04896484 -36.80859375 -0.03515625 C-35.88175781 -0.02355469 -34.95492187 -0.01195312 -34 0 C-33.01 2.97 -32.02 5.94 -31 9 C-30.38125 8.113125 -29.7625 7.22625 -29.125 6.3125 C-21.32364658 -2.96538076 -10.75682658 -3.66189841 0 0 Z " fill="#1548AC" transform="translate(873,501)"/>
<path d="M0 0 C10.89 0 21.78 0 33 0 C33 13.86 33 27.72 33 42 C17 41 17 41 0 37 C0 24.79 0 12.58 0 0 Z " fill="#1242A9" transform="translate(302,583)"/>
<path d="M0 0 C1 1 1 1 1.25 4.6875 C1.16134276 10.20395048 -0.78858143 13.59730482 -4.375 17.75 C-9.54152329 22.17844853 -14.50042364 22.48406138 -21.109375 22.39453125 C-25.48671645 21.79708329 -27.1161213 20.27359203 -30 17 C-31.45147903 14.09704195 -31.37239025 12.22738221 -31 9 C-28.12533827 4.27071779 -25.26697058 1.9972534 -19.953125 0.4609375 C-13.3786514 -0.56523695 -6.62817822 -0.38467106 0 0 Z " fill="#F6F7FA" transform="translate(789,542)"/>
<path d="M0 0 C2.86262666 2.86262666 5.24133875 5.5253491 6.4375 9.4375 C6.4375 12.0775 6.4375 14.7175 6.4375 17.4375 C-5.4425 17.4375 -17.3225 17.4375 -29.5625 17.4375 C-28.46285996 8.64037972 -26.83487574 4.77203716 -20 -0.5625 C-13.35986714 -2.49417501 -6.38409175 -2.80004024 0 0 Z " fill="#F1F4F9" transform="translate(1002.5625,514.5625)"/>
<path d="M0 0 C0.66 0 1.32 0 2 0 C2 35.64 2 71.28 2 108 C22.79 108 43.58 108 65 108 C65 108.66 65 109.32 65 110 C56.67271053 110.02312684 48.34543437 110.04091683 40.01812077 110.05181217 C36.15179882 110.05704026 32.28549879 110.06413654 28.41918945 110.07543945 C24.69096599 110.086271 20.96276366 110.0922774 17.23452568 110.09487724 C15.80910344 110.09673101 14.38368241 110.10035071 12.95826912 110.10573006 C10.96836592 110.11294393 8.97844166 110.11340808 6.98852539 110.11352539 C5.85379288 110.115746 4.71906036 110.11796661 3.54994202 110.12025452 C1 110 1 110 0 109 C-0.09550698 107.58321089 -0.12188483 106.16168759 -0.12025452 104.74168396 C-0.12162918 103.8231665 -0.12300385 102.90464905 -0.12442017 101.95829773 C-0.12082489 100.94266251 -0.11722961 99.92702728 -0.11352539 98.88061523 C-0.11367142 97.81733002 -0.11381744 96.7540448 -0.1139679 95.65853882 C-0.11326825 92.12520342 -0.10547343 88.59192 -0.09765625 85.05859375 C-0.09579225 82.61621632 -0.09436827 80.17383851 -0.09336853 77.73146057 C-0.08954189 71.28865536 -0.07971037 64.84587252 -0.06866455 58.40307617 C-0.05845356 51.83447574 -0.05387158 45.2658717 -0.04882812 38.69726562 C-0.03808823 25.79816751 -0.02120104 12.89908494 0 0 Z " fill="#41B1AE" transform="translate(1097,466)"/>
<path d="M0 0 C0.66 0.33 1.32 0.66 2 1 C1.88205038 5.96639957 1.75782482 10.93258651 1.62768555 15.89868164 C1.58427561 17.58939299 1.54260511 19.28014991 1.50268555 20.97094727 C1.44512906 23.39613606 1.38139351 25.82109415 1.31640625 28.24609375 C1.29133751 29.38672523 1.29133751 29.38672523 1.26576233 30.55039978 C1.11387171 35.88612829 1.11387171 35.88612829 0 37 C-2.69654854 37.07319621 -5.36691458 37.09242537 -8.0625 37.0625 C-9.20041992 37.05573242 -9.20041992 37.05573242 -10.36132812 37.04882812 C-12.24091871 37.0370068 -14.12046899 37.01907078 -16 37 C-16 36.34 -16 35.68 -16 35 C-11.05 35 -6.1 35 -1 35 C-0.67 23.45 -0.34 11.9 0 0 Z " fill="#5076C2" transform="translate(902,539)"/>
<path d="M0 0 C6.27 0.33 12.54 0.66 19 1 C19 1.66 19 2.32 19 3 C12.73 3 6.46 3 0 3 C0 2.01 0 1.02 0 0 Z " fill="#47B3B0" transform="translate(1174,573)"/>
<path d="M0 0 C6.27 0 12.54 0 19 0 C18.67 1.32 18.34 2.64 18 4 C17.67 3.34 17.34 2.68 17 2 C11.39 1.67 5.78 1.34 0 1 C0 0.67 0 0.34 0 0 Z " fill="#2F5BB7" transform="translate(931,501)"/>
<path d="M0 0 C0.66 0.33 1.32 0.66 2 1 C-0.97 3.97 -3.94 6.94 -7 10 C-7 5.69032084 -4.83274712 4.10253255 -2 1 C-1.34 0.67 -0.68 0.34 0 0 Z " fill="#36AAA9" transform="translate(471,441)"/>
<path d="M0 0 C0.66 0.33 1.32 0.66 2 1 C-0.64 3.64 -3.28 6.28 -6 9 C-6 6 -6 6 -3.5625 3.375 C-2.716875 2.59125 -1.87125 1.8075 -1 1 C-0.67 0.67 -0.34 0.34 0 0 Z " fill="#3BB0AB" transform="translate(534,347)"/>
<path d="M0 0 C0.66 0 1.32 0 2 0 C1.45773019 3.79588866 -0.20127563 5.47211993 -3 8 C-3.66 7.67 -4.32 7.34 -5 7 C-4.21654285 5.82780457 -3.42297164 4.66236332 -2.625 3.5 C-2.18414063 2.8503125 -1.74328125 2.200625 -1.2890625 1.53125 C-0.65097656 0.77328125 -0.65097656 0.77328125 0 0 Z " fill="#35AFAA" transform="translate(1188,553)"/>
</svg>
